<?xml version="1.0" encoding="UTF-8"?>
<svg width="900" height="350" viewBox="0 0 900 350" xmlns="http://www.w3.org/2000/svg">
  <!-- Leftmost Digit (Hour Tens) -->
  <g id="digit1">
    <rect x="40" y="60" width="60" height="18" rx="6" fill="#ccccff" stroke="#00c" stroke-width="2"/>
    <text x="70" y="52" font-size="10" text-anchor="middle" fill="#00c">Top (6-8)</text>
    <rect x="40" y="150" width="60" height="18" rx="6" fill="#ffcccc" stroke="#c00" stroke-width="2"/>
    <text x="70" y="162" font-size="10" text-anchor="middle" fill="#c00">Middle (0-2)</text>
    <rect x="40" y="270" width="60" height="18" rx="6" fill="#ffccff" stroke="#909" stroke-width="2"/>
    <text x="70" y="295" font-size="10" text-anchor="middle" fill="#909">Bottom (15-17)</text>
    <rect x="100" y="60" width="18" height="60" rx="6" fill="#ccffcc" stroke="#090" stroke-width="2"/>
    <text x="110" y="90" font-size="10" fill="#090" transform="rotate(90 110,90)">Top Right (3-5)</text>
    <rect x="100" y="190" width="18" height="60" rx="6" fill="#ffd9b3" stroke="#c60" stroke-width="2"/>
    <text x="110" y="220" font-size="10" fill="#c60" transform="rotate(90 110,220)">Bottom Right (18-20)</text>
    <rect x="22" y="60" width="18" height="60" rx="6" fill="#ffffcc" stroke="#cc0" stroke-width="2"/>
    <text x="32" y="90" font-size="10" fill="#cc0" transform="rotate(90 32,90)">Top Left (9-11)</text>
    <rect x="22" y="190" width="18" height="60" rx="6" fill="#ccffff" stroke="#099" stroke-width="2"/>
    <text x="32" y="220" font-size="10" fill="#099" transform="rotate(90 32,220)">Bottom Left (12-14)</text>
    <!-- Arrows for segment order -->
    <defs>
      <marker id="arrow" markerWidth="10" markerHeight="10" refX="10" refY="5" orient="auto" markerUnits="strokeWidth">
        <path d="M0,0 L10,5 L0,10 L3,5 Z" fill="#333" />
      </marker>
    </defs>
    <line x1="70" y1="159" x2="110" y2="90" stroke="#333" stroke-width="2" marker-end="url(#arrow)"/>
    <line x1="109" y1="60" x2="70" y2="49" stroke="#333" stroke-width="2" marker-end="url(#arrow)"/>
    <line x1="40" y1="49" x2="32" y2="90" stroke="#333" stroke-width="2" marker-end="url(#arrow)"/>
    <line x1="31" y1="120" x2="31" y2="190" stroke="#333" stroke-width="2" marker-end="url(#arrow)"/>
    <line x1="32" y1="250" x2="40" y2="279" stroke="#333" stroke-width="2" marker-end="url(#arrow)"/>
    <line x1="70" y1="279" x2="109" y2="250" stroke="#333" stroke-width="2" marker-end="url(#arrow)"/>
    <line x1="109" y1="250" x2="109" y2="190" stroke="#333" stroke-width="2" marker-end="url(#arrow)"/>
    <text x="70" y="35" font-size="14" text-anchor="middle" fill="#222">Hour Tens</text>
    <!-- Progression arrow: Digit 1 bottom right to Digit 2 middle -->
    <line x1="118" y1="250" x2="200" y2="159" stroke="#00c" stroke-width="3" marker-end="url(#arrow)"/>
  </g>

  <!-- Second Digit (Hour Ones) -->
  <g id="digit2" transform="translate(130,0)">
    <rect x="40" y="60" width="60" height="18" rx="6" fill="#ccccff" stroke="#00c" stroke-width="2"/>
    <text x="70" y="52" font-size="10" text-anchor="middle" fill="#00c">Top (6-8)</text>
    <rect x="40" y="150" width="60" height="18" rx="6" fill="#ffcccc" stroke="#c00" stroke-width="2"/>
    <text x="70" y="162" font-size="10" text-anchor="middle" fill="#c00">Middle (0-2)</text>
    <rect x="40" y="270" width="60" height="18" rx="6" fill="#ffccff" stroke="#909" stroke-width="2"/>
    <text x="70" y="295" font-size="10" text-anchor="middle" fill="#909">Bottom (15-17)</text>
    <rect x="100" y="60" width="18" height="60" rx="6" fill="#ccffcc" stroke="#090" stroke-width="2"/>
    <text x="110" y="90" font-size="10" fill="#090" transform="rotate(90 110,90)">Top Right (3-5)</text>
    <rect x="100" y="190" width="18" height="60" rx="6" fill="#ffd9b3" stroke="#c60" stroke-width="2"/>
    <text x="110" y="220" font-size="10" fill="#c60" transform="rotate(90 110,220)">Bottom Right (18-20)</text>
    <rect x="22" y="60" width="18" height="60" rx="6" fill="#ffffcc" stroke="#cc0" stroke-width="2"/>
    <text x="32" y="90" font-size="10" fill="#cc0" transform="rotate(90 32,90)">Top Left (9-11)</text>
    <rect x="22" y="190" width="18" height="60" rx="6" fill="#ccffff" stroke="#099" stroke-width="2"/>
    <text x="32" y="220" font-size="10" fill="#099" transform="rotate(90 32,220)">Bottom Left (12-14)</text>
    <!-- Arrows for segment order -->
    <line x1="70" y1="159" x2="110" y2="90" stroke="#333" stroke-width="2" marker-end="url(#arrow)"/>
    <line x1="109" y1="60" x2="70" y2="49" stroke="#333" stroke-width="2" marker-end="url(#arrow)"/>
    <line x1="40" y1="49" x2="32" y2="90" stroke="#333" stroke-width="2" marker-end="url(#arrow)"/>
    <line x1="31" y1="120" x2="31" y2="190" stroke="#333" stroke-width="2" marker-end="url(#arrow)"/>
    <line x1="32" y1="250" x2="40" y2="279" stroke="#333" stroke-width="2" marker-end="url(#arrow)"/>
    <line x1="70" y1="279" x2="109" y2="250" stroke="#333" stroke-width="2" marker-end="url(#arrow)"/>
    <line x1="109" y1="250" x2="109" y2="190" stroke="#333" stroke-width="2" marker-end="url(#arrow)"/>
    <text x="70" y="35" font-size="14" text-anchor="middle" fill="#222">Hour Ones</text>
    <!-- Progression arrow: Digit 2 bottom right to Colon top -->
    <line x1="118" y1="250" x2="220" y2="120" stroke="#00c" stroke-width="3" marker-end="url(#arrow)"/>
  </g>

  <!-- Colon Separator -->
  <g id="colon" transform="translate(320,0)">
    <circle cx="30" cy="120" r="10" fill="#ffeb99" stroke="#cc0" stroke-width="2"/>
    <text x="30" y="115" font-size="10" text-anchor="middle" fill="#cc0">Colon Top (42)</text>
    <circle cx="30" cy="210" r="10" fill="#ffeb99" stroke="#cc0" stroke-width="2"/>
    <text x="30" y="205" font-size="10" text-anchor="middle" fill="#cc0">Colon Bottom (43)</text>
    <!-- Arrow for colon order -->
    <line x1="30" y1="130" x2="30" y2="200" stroke="#333" stroke-width="2" marker-end="url(#arrow)"/>
    <text x="30" y="95" font-size="14" text-anchor="middle" fill="#222">Colon</text>
    <!-- Progression arrow: Colon bottom to Digit 3 middle -->
    <line x1="30" y1="210" x2="150" y2="159" stroke="#00c" stroke-width="3" marker-end="url(#arrow)"/>
  </g>

  <!-- Third Digit (Minute Tens) -->
  <g id="digit3" transform="translate(400,0)">
    <rect x="40" y="60" width="60" height="18" rx="6" fill="#ccccff" stroke="#00c" stroke-width="2"/>
    <text x="70" y="52" font-size="10" text-anchor="middle" fill="#00c">Top (6-8)</text>
    <rect x="40" y="150" width="60" height="18" rx="6" fill="#ffcccc" stroke="#c00" stroke-width="2"/>
    <text x="70" y="162" font-size="10" text-anchor="middle" fill="#c00">Middle (0-2)</text>
    <rect x="40" y="270" width="60" height="18" rx="6" fill="#ffccff" stroke="#909" stroke-width="2"/>
    <text x="70" y="295" font-size="10" text-anchor="middle" fill="#909">Bottom (15-17)</text>
    <rect x="100" y="60" width="18" height="60" rx="6" fill="#ccffcc" stroke="#090" stroke-width="2"/>
    <text x="110" y="90" font-size="10" fill="#090" transform="rotate(90 110,90)">Top Right (3-5)</text>
    <rect x="100" y="190" width="18" height="60" rx="6" fill="#ffd9b3" stroke="#c60" stroke-width="2"/>
    <text x="110" y="220" font-size="10" fill="#c60" transform="rotate(90 110,220)">Bottom Right (18-20)</text>
    <rect x="22" y="60" width="18" height="60" rx="6" fill="#ffffcc" stroke="#cc0" stroke-width="2"/>
    <text x="32" y="90" font-size="10" fill="#cc0" transform="rotate(90 32,90)">Top Left (9-11)</text>
    <rect x="22" y="190" width="18" height="60" rx="6" fill="#ccffff" stroke="#099" stroke-width="2"/>
    <text x="32" y="220" font-size="10" fill="#099" transform="rotate(90 32,220)">Bottom Left (12-14)</text>
    <!-- Arrows for segment order -->
    <line x1="70" y1="159" x2="110" y2="90" stroke="#333" stroke-width="2" marker-end="url(#arrow)"/>
    <line x1="109" y1="60" x2="70" y2="49" stroke="#333" stroke-width="2" marker-end="url(#arrow)"/>
    <line x1="40" y1="49" x2="32" y2="90" stroke="#333" stroke-width="2" marker-end="url(#arrow)"/>
    <line x1="31" y1="120" x2="31" y2="190" stroke="#333" stroke-width="2" marker-end="url(#arrow)"/>
    <line x1="32" y1="250" x2="40" y2="279" stroke="#333" stroke-width="2" marker-end="url(#arrow)"/>
    <line x1="70" y1="279" x2="109" y2="250" stroke="#333" stroke-width="2" marker-end="url(#arrow)"/>
    <line x1="109" y1="250" x2="109" y2="190" stroke="#333" stroke-width="2" marker-end="url(#arrow)"/>
    <text x="70" y="35" font-size="14" text-anchor="middle" fill="#222">Minute Tens</text>
    <!-- Progression arrow: Digit 3 bottom right to Digit 4 middle -->
    <line x1="128" y1="250" x2="200" y2="159" stroke="#00c" stroke-width="3" marker-end="url(#arrow)"/>
  </g>

  <!-- Fourth Digit (Minute Ones) -->
  <g id="digit4" transform="translate(530,0)">
    <rect x="40" y="60" width="60" height="18" rx="6" fill="#ccccff" stroke="#00c" stroke-width="2"/>
    <text x="70" y="52" font-size="10" text-anchor="middle" fill="#00c">Top (6-8)</text>
    <rect x="40" y="150" width="60" height="18" rx="6" fill="#ffcccc" stroke="#c00" stroke-width="2"/>
    <text x="70" y="162" font-size="10" text-anchor="middle" fill="#c00">Middle (0-2)</text>
    <rect x="40" y="270" width="60" height="18" rx="6" fill="#ffccff" stroke="#909" stroke-width="2"/>
    <text x="70" y="295" font-size="10" text-anchor="middle" fill="#909">Bottom (15-17)</text>
    <rect x="100" y="60" width="18" height="60" rx="6" fill="#ccffcc" stroke="#090" stroke-width="2"/>
    <text x="110" y="90" font-size="10" fill="#090" transform="rotate(90 110,90)">Top Right (3-5)</text>
    <rect x="100" y="190" width="18" height="60" rx="6" fill="#ffd9b3" stroke="#c60" stroke-width="2"/>
    <text x="110" y="220" font-size="10" fill="#c60" transform="rotate(90 110,220)">Bottom Right (18-20)</text>
    <rect x="22" y="60" width="18" height="60" rx="6" fill="#ffffcc" stroke="#cc0" stroke-width="2"/>
    <text x="32" y="90" font-size="10" fill="#cc0" transform="rotate(90 32,90)">Top Left (9-11)</text>
    <rect x="22" y="190" width="18" height="60" rx="6" fill="#ccffff" stroke="#099" stroke-width="2"/>
    <text x="32" y="220" font-size="10" fill="#099" transform="rotate(90 32,220)">Bottom Left (12-14)</text>
    <!-- Arrows for segment order -->
    <line x1="70" y1="159" x2="110" y2="90" stroke="#333" stroke-width="2" marker-end="url(#arrow)"/>
    <line x1="109" y1="60" x2="70" y2="49" stroke="#333" stroke-width="2" marker-end="url(#arrow)"/>
    <line x1="40" y1="49" x2="32" y2="90" stroke="#333" stroke-width="2" marker-end="url(#arrow)"/>
    <line x1="31" y1="120" x2="31" y2="190" stroke="#333" stroke-width="2" marker-end="url(#arrow)"/>
    <line x1="32" y1="250" x2="40" y2="279" stroke="#333" stroke-width="2" marker-end="url(#arrow)"/>
    <line x1="70" y1="279" x2="109" y2="250" stroke="#333" stroke-width="2" marker-end="url(#arrow)"/>
    <line x1="109" y1="250" x2="109" y2="190" stroke="#333" stroke-width="2" marker-end="url(#arrow)"/>
    <text x="70" y="35" font-size="14" text-anchor="middle" fill="#222">Minute Ones</text>
  </g>
</svg> 